<?xml version="1.0" standalone="no"?>
<!DOCTYPE svg PUBLIC "-//W3C//DTD SVG 20010904//EN"
 "http://www.w3.org/TR/2001/REC-SVG-20010904/DTD/svg10.dtd">
<svg version="1.0" xmlns="http://www.w3.org/2000/svg"
 width="512.000000pt" height="512.000000pt" viewBox="0 0 512.000000 512.000000"
 preserveAspectRatio="xMidYMid meet">
<metadata>
Created by potrace 1.14, written by Peter Selinger 2001-2017
</metadata>
<g transform="translate(0.000000,512.000000) scale(0.100000,-0.100000)"
fill="#000000" stroke="none">
<path d="M3852 4899 c-315 -54 -517 -397 -412 -698 11 -30 17 -58 12 -62 -4
-4 -41 -10 -82 -13 -41 -4 -104 -11 -140 -16 -36 -5 -93 -12 -128 -15 -35 -4
-71 -8 -80 -10 -9 -1 -48 -6 -87 -10 -38 -4 -78 -9 -89 -11 -10 -2 -51 -6 -90
-10 -39 -3 -91 -10 -115 -14 -59 -11 -132 -6 -331 20 -41 5 -95 12 -120 15
-46 5 -273 32 -345 40 -22 3 -101 12 -175 20 -127 15 -155 18 -247 30 -42 5
-184 22 -253 29 -160 18 -454 53 -510 62 -19 2 -62 6 -96 9 -56 3 -64 1 -97
-26 -36 -30 -39 -38 -52 -154 -3 -27 -7 -61 -10 -75 -2 -14 -6 -45 -9 -70 -6
-50 -44 -356 -51 -410 -3 -19 -21 -163 -40 -320 -19 -157 -37 -298 -39 -315
-3 -16 -7 -57 -11 -90 -4 -33 -8 -71 -10 -85 -3 -14 -22 -171 -45 -350 -22
-179 -43 -343 -45 -365 -10 -71 -14 -103 -70 -555 -30 -245 -57 -461 -60 -480
-2 -19 -9 -75 -16 -123 -22 -175 3 -202 206 -222 39 -3 81 -8 95 -10 24 -3
175 -21 255 -30 22 -3 83 -9 135 -15 52 -6 115 -13 140 -16 25 -2 65 -7 90
-10 25 -3 61 -7 80 -9 138 -15 139 -15 144 -43 3 -15 8 -63 11 -107 10 -122
38 -164 113 -170 16 -1 77 4 133 11 57 6 133 15 169 18 36 4 76 9 90 11 14 2
48 7 75 10 44 4 242 27 365 41 25 2 61 7 80 9 19 3 55 7 80 10 170 18 248 27
265 29 11 2 49 0 85 -5 36 -4 94 -10 130 -14 36 -3 76 -8 90 -10 14 -2 70 -9
125 -15 106 -12 140 -15 220 -25 28 -3 68 -7 90 -10 192 -21 324 -36 345 -40
22 -4 52 -7 201 -20 48 -4 94 20 112 58 9 18 18 70 22 117 3 47 8 95 11 107 4
22 10 23 149 38 28 3 66 8 85 10 19 2 58 7 85 10 28 2 124 13 215 24 91 11
194 22 230 26 36 4 76 8 90 10 14 2 50 6 80 10 150 17 165 21 194 53 10 12 20
36 22 54 4 27 -23 263 -81 713 -3 22 -21 168 -40 325 -20 157 -37 301 -40 320
-2 19 -11 91 -20 160 -9 69 -18 141 -20 160 -3 19 -18 143 -35 275 -16 132
-32 258 -35 280 -3 22 -37 294 -75 605 -38 311 -72 581 -76 600 -3 21 -19 47
-41 67 -35 33 -35 33 -108 27 l-73 -6 5 71 c11 161 -41 303 -150 414 -102 103
-212 154 -352 161 -38 3 -94 0 -123 -5z"/>
</g>
</svg>
